<svg width="507" height="521" viewBox="0 0 507 521" fill="none" xmlns="http://www.w3.org/2000/svg">
<path d="M90.043 118.012C88.9383 95.0081 104.665 74.5926 127.188 69.7903L449.591 1.05187C479.207 -5.26253 506.978 17.6677 506.382 47.9438L499.682 388.301C499.276 408.908 485.493 426.846 465.686 432.544L167.153 518.434C138.007 526.819 108.667 505.814 107.212 475.52L90.043 118.012Z" id="outStyleSquare"/>
<path d="M48.0786 191.883C51.7329 176.221 63.1415 163.515 78.3207 158.202L357.341 60.5301C389.294 49.3448 422.236 74.5902 419.742 108.353L400.408 370.135C398.751 392.566 381.435 410.679 359.101 413.342L52.5941 449.898C20.2239 453.759 -6.14991 424.296 1.25753 392.549L48.0786 191.883Z" id="innerStyleSquare"/>
</svg>
