<svg viewBox="0 0 621 514" fill="none" xmlns="http://www.w3.org/2000/svg">
<path d="M407.06 0.714173C422.792 0.757493 437.458 8.66852 446.135 21.7908L612.44 273.299C631.605 302.283 613.779 341.324 579.324 345.826L255.315 388.158C233.187 391.049 212.076 377.981 204.797 356.885L103.16 62.3305C92.6098 31.7565 115.376 -0.0889799 147.718 7.78141e-05L407.06 0.714173Z" id="outStyleSquare"/>
<path d="M411.187 120.337C434.656 120.832 454.162 138.569 456.879 161.886L491.748 461.091C495.187 490.598 470.73 515.854 441.128 513.366L97.2312 484.46C76.285 482.7 59.0546 467.245 55.0351 446.613L0.883458 168.648C-4.84717 139.232 18.0459 112.039 48.008 112.671L411.187 120.337Z" id="innerStyleSquare"/>
</svg>
