<svg viewBox="0 0 472 534" fill="none" xmlns="http://www.w3.org/2000/svg">
<path d="M78.057 37.0426C83.0312 14.1008 104.17 -1.65295 127.577 0.138505L427.928 23.1265C457.548 25.3935 477.662 54.2289 469.559 82.8092L375.427 414.832C369.693 435.055 351.229 449.013 330.209 449.013H47.0184C17.0496 449.013 -5.26454 421.342 1.08558 392.054L78.057 37.0426Z" id="outStyleSquare"/>
<path d="M90.8523 223.219C93.903 207.786 104.473 194.903 119.012 188.895L397.68 73.7527C429.794 60.4835 464.706 85.4461 462.536 120.126L442.13 446.251C440.737 468.524 423.872 486.746 401.774 489.857L93.2197 533.294C61.1926 537.803 34.288 509.368 40.56 477.639L90.8523 223.219Z" id="innerStyleSquare"/>
</svg>
