<svg width="274" height="640" viewBox="0 0 274 640" fill="none" xmlns="http://www.w3.org/2000/svg">
<path d="M17.3526 465.112C5.14582 455.188 -1.28671 439.816 0.215039 424.156L28.9981 124.014C32.3151 89.4252 70.722 70.2703 100.347 88.43L378.934 259.203C397.96 270.866 406.161 294.3 398.56 315.282L292.425 608.246C281.408 638.655 243.684 649.108 218.588 628.706L17.3526 465.112Z" id="outStyleSquare"/>
<path d="M73.9453 337.528C56.0049 322.388 51.9866 296.333 64.5319 276.491L225.514 21.8858C241.39 -3.22288 276.288 -7.48904 297.745 13.0559L547.013 251.731C562.195 266.268 565.879 289.119 556.034 307.691L423.4 557.901C409.364 584.38 374.465 591.135 351.561 571.807L73.9453 337.528Z" id="innerStyleSquare"/>
</svg>

