<svg width="563" height="584" viewBox="0 0 563 584" fill="none" xmlns="http://www.w3.org/2000/svg">
<path d="M51.2068 153.086C54.2575 137.653 64.8271 124.77 79.3664 118.762L358.034 3.61963C390.148 -9.6496 425.061 15.313 422.891 49.9928L402.485 376.118C401.091 398.391 384.227 416.613 362.128 419.724L53.5742 463.161C21.5471 467.67 -5.3575 439.235 0.914504 407.506L51.2068 153.086Z" id="outStyleSquare"/>
<path d="M169.412 171.91C174.386 148.968 195.525 133.214 218.931 135.005L519.282 157.993C548.902 160.26 569.016 189.096 560.913 217.676L466.781 549.699C461.048 569.922 442.583 583.88 421.563 583.88H138.373C108.404 583.88 86.09 556.209 92.4401 526.921L169.412 171.91Z" id="innerStyleSquare"/>
</svg>
